<mxfile host="app.diagrams.net" modified="2023-09-12T16:00:07.867Z" agent="Mozilla/5.0 (Macintosh; Intel Mac OS X 10_15_7) AppleWebKit/537.36 (KHTML, like Gecko) Chrome/116.0.0.0 Safari/537.36" etag="nvjxNTUnX1gxiw98InRJ" version="21.6.8" type="github">
  <diagram name="第 1 页" id="xOxktJ95Aj7ZGkSULvMy">
    <mxGraphModel dx="1752" dy="1155" grid="0" gridSize="10" guides="1" tooltips="1" connect="1" arrows="1" fold="1" page="0" pageScale="1" pageWidth="1169" pageHeight="827" math="0" shadow="0">
      <root>
        <mxCell id="0" />
        <mxCell id="1" parent="0" />
        <mxCell id="Agr6A_kqyJaV_cY5W26W-55" value="" style="verticalLabelPosition=middle;verticalAlign=middle;html=1;shape=trapezoid;perimeter=trapezoidPerimeter;whiteSpace=wrap;size=0.23;arcSize=10;flipV=1;labelPosition=center;align=center;rotation=90;" vertex="1" parent="1">
          <mxGeometry x="1115" y="249" width="110" height="66" as="geometry" />
        </mxCell>
        <mxCell id="Agr6A_kqyJaV_cY5W26W-36" style="edgeStyle=orthogonalEdgeStyle;rounded=0;orthogonalLoop=1;jettySize=auto;html=1;entryX=0;entryY=0.25;entryDx=0;entryDy=0;" edge="1" parent="1" source="Agr6A_kqyJaV_cY5W26W-1" target="Agr6A_kqyJaV_cY5W26W-3">
          <mxGeometry relative="1" as="geometry" />
        </mxCell>
        <mxCell id="Agr6A_kqyJaV_cY5W26W-61" style="edgeStyle=orthogonalEdgeStyle;rounded=0;orthogonalLoop=1;jettySize=auto;html=1;entryX=0;entryY=0.5;entryDx=0;entryDy=0;" edge="1" parent="1" source="Agr6A_kqyJaV_cY5W26W-1" target="Agr6A_kqyJaV_cY5W26W-60">
          <mxGeometry relative="1" as="geometry">
            <Array as="points">
              <mxPoint x="125" y="106" />
            </Array>
          </mxGeometry>
        </mxCell>
        <mxCell id="Agr6A_kqyJaV_cY5W26W-1" value="&lt;font style=&quot;font-size: 33px;&quot;&gt;X&lt;/font&gt;" style="ellipse;whiteSpace=wrap;html=1;aspect=fixed;" vertex="1" parent="1">
          <mxGeometry x="85" y="230" width="80" height="80" as="geometry" />
        </mxCell>
        <mxCell id="Agr6A_kqyJaV_cY5W26W-10" value="" style="group" vertex="1" connectable="0" parent="1">
          <mxGeometry x="257" y="220" width="66" height="110" as="geometry" />
        </mxCell>
        <mxCell id="Agr6A_kqyJaV_cY5W26W-2" value="" style="verticalLabelPosition=middle;verticalAlign=middle;html=1;shape=trapezoid;perimeter=trapezoidPerimeter;whiteSpace=wrap;size=0.23;arcSize=10;flipV=1;labelPosition=center;align=center;rotation=-90;" vertex="1" parent="Agr6A_kqyJaV_cY5W26W-10">
          <mxGeometry x="-22" y="22" width="110" height="66" as="geometry" />
        </mxCell>
        <mxCell id="Agr6A_kqyJaV_cY5W26W-3" value="&lt;font style=&quot;font-size: 33px;&quot;&gt;E&lt;sub&gt;lf&lt;/sub&gt;&lt;/font&gt;" style="text;html=1;strokeColor=none;fillColor=none;align=center;verticalAlign=middle;whiteSpace=wrap;rounded=0;" vertex="1" parent="Agr6A_kqyJaV_cY5W26W-10">
          <mxGeometry x="1" y="42" width="60" height="30" as="geometry" />
        </mxCell>
        <mxCell id="Agr6A_kqyJaV_cY5W26W-14" value="" style="group" vertex="1" connectable="0" parent="1">
          <mxGeometry x="911" y="330" width="66" height="110" as="geometry" />
        </mxCell>
        <mxCell id="Agr6A_kqyJaV_cY5W26W-15" value="" style="verticalLabelPosition=middle;verticalAlign=middle;html=1;shape=trapezoid;perimeter=trapezoidPerimeter;whiteSpace=wrap;size=0.23;arcSize=10;flipV=1;labelPosition=center;align=center;rotation=-90;" vertex="1" parent="Agr6A_kqyJaV_cY5W26W-14">
          <mxGeometry x="-22" y="22" width="110" height="66" as="geometry" />
        </mxCell>
        <mxCell id="Agr6A_kqyJaV_cY5W26W-16" value="&lt;font style=&quot;font-size: 33px;&quot;&gt;E&lt;/font&gt;&lt;font style=&quot;font-size: 27.5px;&quot;&gt;&lt;sub&gt;vae&lt;/sub&gt;&lt;/font&gt;" style="text;html=1;strokeColor=none;fillColor=none;align=center;verticalAlign=middle;whiteSpace=wrap;rounded=0;" vertex="1" parent="Agr6A_kqyJaV_cY5W26W-14">
          <mxGeometry x="1" y="42" width="60" height="30" as="geometry" />
        </mxCell>
        <mxCell id="Agr6A_kqyJaV_cY5W26W-17" value="" style="group" vertex="1" connectable="0" parent="1">
          <mxGeometry x="660" y="140" width="66" height="110" as="geometry" />
        </mxCell>
        <mxCell id="Agr6A_kqyJaV_cY5W26W-18" value="" style="verticalLabelPosition=middle;verticalAlign=middle;html=1;shape=trapezoid;perimeter=trapezoidPerimeter;whiteSpace=wrap;size=0.23;arcSize=10;flipV=1;labelPosition=center;align=center;rotation=-90;" vertex="1" parent="Agr6A_kqyJaV_cY5W26W-17">
          <mxGeometry x="-22" y="22" width="110" height="66" as="geometry" />
        </mxCell>
        <mxCell id="Agr6A_kqyJaV_cY5W26W-19" value="&lt;font style=&quot;font-size: 33px;&quot;&gt;E&lt;/font&gt;&lt;font style=&quot;font-size: 27.5px;&quot;&gt;&lt;sub&gt;a&lt;/sub&gt;&lt;/font&gt;" style="text;html=1;strokeColor=none;fillColor=none;align=center;verticalAlign=middle;whiteSpace=wrap;rounded=0;" vertex="1" parent="Agr6A_kqyJaV_cY5W26W-17">
          <mxGeometry x="1" y="42" width="60" height="30" as="geometry" />
        </mxCell>
        <mxCell id="Agr6A_kqyJaV_cY5W26W-39" style="edgeStyle=orthogonalEdgeStyle;rounded=0;orthogonalLoop=1;jettySize=auto;html=1;entryX=0;entryY=0.25;entryDx=0;entryDy=0;" edge="1" parent="1" source="Agr6A_kqyJaV_cY5W26W-34" target="Agr6A_kqyJaV_cY5W26W-19">
          <mxGeometry relative="1" as="geometry" />
        </mxCell>
        <mxCell id="Agr6A_kqyJaV_cY5W26W-42" style="edgeStyle=orthogonalEdgeStyle;rounded=0;orthogonalLoop=1;jettySize=auto;html=1;entryX=0;entryY=0.75;entryDx=0;entryDy=0;" edge="1" parent="1" source="Agr6A_kqyJaV_cY5W26W-34" target="Agr6A_kqyJaV_cY5W26W-16">
          <mxGeometry relative="1" as="geometry" />
        </mxCell>
        <mxCell id="Agr6A_kqyJaV_cY5W26W-34" value="&lt;font style=&quot;font-size: 21px;&quot;&gt;feature&lt;br&gt;map&lt;/font&gt;" style="rounded=0;whiteSpace=wrap;html=1;" vertex="1" parent="1">
          <mxGeometry x="412" y="247" width="120" height="60" as="geometry" />
        </mxCell>
        <mxCell id="Agr6A_kqyJaV_cY5W26W-38" style="edgeStyle=orthogonalEdgeStyle;rounded=0;orthogonalLoop=1;jettySize=auto;html=1;entryX=0;entryY=0.5;entryDx=0;entryDy=0;" edge="1" parent="1" target="Agr6A_kqyJaV_cY5W26W-34">
          <mxGeometry relative="1" as="geometry">
            <mxPoint x="327" y="277" as="sourcePoint" />
          </mxGeometry>
        </mxCell>
        <mxCell id="Agr6A_kqyJaV_cY5W26W-48" style="edgeStyle=orthogonalEdgeStyle;rounded=0;orthogonalLoop=1;jettySize=auto;html=1;entryX=0.5;entryY=0;entryDx=0;entryDy=0;" edge="1" parent="1" source="Agr6A_kqyJaV_cY5W26W-40" target="Agr6A_kqyJaV_cY5W26W-46">
          <mxGeometry relative="1" as="geometry" />
        </mxCell>
        <mxCell id="Agr6A_kqyJaV_cY5W26W-50" style="edgeStyle=orthogonalEdgeStyle;rounded=0;orthogonalLoop=1;jettySize=auto;html=1;entryX=0.5;entryY=0;entryDx=0;entryDy=0;" edge="1" parent="1" source="Agr6A_kqyJaV_cY5W26W-40" target="Agr6A_kqyJaV_cY5W26W-49">
          <mxGeometry relative="1" as="geometry" />
        </mxCell>
        <mxCell id="Agr6A_kqyJaV_cY5W26W-40" value="&lt;font style=&quot;font-size: 33px;&quot;&gt;Z&lt;sub&gt;a&lt;/sub&gt;&lt;/font&gt;" style="ellipse;whiteSpace=wrap;html=1;aspect=fixed;" vertex="1" parent="1">
          <mxGeometry x="803" y="157" width="80" height="80" as="geometry" />
        </mxCell>
        <mxCell id="Agr6A_kqyJaV_cY5W26W-41" style="edgeStyle=orthogonalEdgeStyle;rounded=0;orthogonalLoop=1;jettySize=auto;html=1;entryX=0;entryY=0.5;entryDx=0;entryDy=0;" edge="1" parent="1" target="Agr6A_kqyJaV_cY5W26W-40">
          <mxGeometry relative="1" as="geometry">
            <mxPoint x="726" y="197" as="sourcePoint" />
          </mxGeometry>
        </mxCell>
        <mxCell id="Agr6A_kqyJaV_cY5W26W-46" value="" style="shape=sumEllipse;perimeter=ellipsePerimeter;whiteSpace=wrap;html=1;backgroundOutline=1;" vertex="1" parent="1">
          <mxGeometry x="826" y="375" width="35" height="35" as="geometry" />
        </mxCell>
        <mxCell id="Agr6A_kqyJaV_cY5W26W-57" style="edgeStyle=orthogonalEdgeStyle;rounded=0;orthogonalLoop=1;jettySize=auto;html=1;entryX=0.452;entryY=0.007;entryDx=0;entryDy=0;entryPerimeter=0;" edge="1" parent="1" source="Agr6A_kqyJaV_cY5W26W-49" target="Agr6A_kqyJaV_cY5W26W-55">
          <mxGeometry relative="1" as="geometry" />
        </mxCell>
        <mxCell id="Agr6A_kqyJaV_cY5W26W-49" value="" style="shape=sumEllipse;perimeter=ellipsePerimeter;whiteSpace=wrap;html=1;backgroundOutline=1;" vertex="1" parent="1">
          <mxGeometry x="1019" y="254.5" width="45" height="45" as="geometry" />
        </mxCell>
        <mxCell id="Agr6A_kqyJaV_cY5W26W-53" style="edgeStyle=orthogonalEdgeStyle;rounded=0;orthogonalLoop=1;jettySize=auto;html=1;entryX=0.5;entryY=1;entryDx=0;entryDy=0;" edge="1" parent="1" target="Agr6A_kqyJaV_cY5W26W-49">
          <mxGeometry relative="1" as="geometry">
            <mxPoint x="978" y="387" as="sourcePoint" />
          </mxGeometry>
        </mxCell>
        <mxCell id="Agr6A_kqyJaV_cY5W26W-54" value="" style="group" vertex="1" connectable="0" parent="1">
          <mxGeometry x="1141" y="226" width="66" height="110" as="geometry" />
        </mxCell>
        <mxCell id="Agr6A_kqyJaV_cY5W26W-56" value="&lt;font style=&quot;&quot;&gt;&lt;sub style=&quot;&quot;&gt;&lt;span style=&quot;font-size: 33px;&quot;&gt;De&lt;/span&gt;&lt;/sub&gt;&lt;/font&gt;" style="text;html=1;strokeColor=none;fillColor=none;align=center;verticalAlign=middle;whiteSpace=wrap;rounded=0;" vertex="1" parent="Agr6A_kqyJaV_cY5W26W-54">
          <mxGeometry x="1" y="42" width="60" height="30" as="geometry" />
        </mxCell>
        <mxCell id="Agr6A_kqyJaV_cY5W26W-62" style="edgeStyle=orthogonalEdgeStyle;rounded=0;orthogonalLoop=1;jettySize=auto;html=1;entryX=0.686;entryY=1.039;entryDx=0;entryDy=0;entryPerimeter=0;" edge="1" parent="1" source="Agr6A_kqyJaV_cY5W26W-58" target="Agr6A_kqyJaV_cY5W26W-60">
          <mxGeometry relative="1" as="geometry" />
        </mxCell>
        <mxCell id="Agr6A_kqyJaV_cY5W26W-58" value="&lt;span style=&quot;font-size: 33px;&quot;&gt;X&lt;/span&gt;&lt;span style=&quot;font-size: 27.5px;&quot;&gt;&lt;sub&gt;z&lt;/sub&gt;&lt;/span&gt;" style="ellipse;whiteSpace=wrap;html=1;aspect=fixed;" vertex="1" parent="1">
          <mxGeometry x="1288" y="242" width="80" height="80" as="geometry" />
        </mxCell>
        <mxCell id="Agr6A_kqyJaV_cY5W26W-59" style="edgeStyle=orthogonalEdgeStyle;rounded=0;orthogonalLoop=1;jettySize=auto;html=1;" edge="1" parent="1" source="Agr6A_kqyJaV_cY5W26W-56" target="Agr6A_kqyJaV_cY5W26W-58">
          <mxGeometry relative="1" as="geometry" />
        </mxCell>
        <mxCell id="Agr6A_kqyJaV_cY5W26W-60" value="&lt;font style=&quot;font-size: 29px;&quot;&gt;D&lt;/font&gt;" style="rounded=1;whiteSpace=wrap;html=1;" vertex="1" parent="1">
          <mxGeometry x="1245" y="76" width="120" height="60" as="geometry" />
        </mxCell>
      </root>
    </mxGraphModel>
  </diagram>
</mxfile>
